<?xml version="1.0" encoding="utf-8"?><svg viewBox="0 0 24 24" xmlns="http://www.w3.org/2000/svg" xmlns:xlink="http://www.w3.org/1999/xlink"><style>:root>svg{display:none}:root>svg:target{display:block}</style><svg fill="none" viewBox="0 0 24 16" id="arrow" xmlns="http://www.w3.org/2000/svg"><path d="m16 0-1.41 1.41L20.17 7H0v2h20.17l-5.59 5.58L16 16l8-8-8-8Z" fill="#FBD784"/></svg><svg fill="none" viewBox="0 0 16 24" id="arrow-white" xmlns="http://www.w3.org/2000/svg"><path d="m16 16-1.41-1.41L9 20.17V0H7v20.17l-5.58-5.59L0 16l8 8 8-8Z" fill="#fff"/></svg><svg fill="none" viewBox="0 0 24 24" id="cart" xmlns="http://www.w3.org/2000/svg"><path fill-rule="evenodd" clip-rule="evenodd" d="M12 2C6.48 2 2 6.48 2 12s4.48 10 10 10 10-4.48 10-10S17.52 2 12 2ZM7.07 18.28c.43-.9 3.05-1.78 4.93-1.78s4.51.88 4.93 1.78A7.893 7.893 0 0 1 12 20c-1.86 0-3.57-.64-4.93-1.72Zm11.29-1.45c-1.43-1.74-4.9-2.33-6.36-2.33s-4.93.59-6.36 2.33A7.95 7.95 0 0 1 4 12c0-4.41 3.59-8 8-8s8 3.59 8 8c0 1.82-.62 3.49-1.64 4.83ZM12 6c-1.94 0-3.5 1.56-3.5 3.5S10.06 13 12 13s3.5-1.56 3.5-3.5S13.94 6 12 6Zm0 5c-.83 0-1.5-.67-1.5-1.5S11.17 8 12 8s1.5.67 1.5 1.5S12.83 11 12 11Z" fill="#fff"/><mask id="ca" style="mask-type:luminance" maskUnits="userSpaceOnUse" x="2" y="2" width="20" height="20"><path fill-rule="evenodd" clip-rule="evenodd" d="M12 2C6.48 2 2 6.48 2 12s4.48 10 10 10 10-4.48 10-10S17.52 2 12 2ZM7.07 18.28c.43-.9 3.05-1.78 4.93-1.78s4.51.88 4.93 1.78A7.893 7.893 0 0 1 12 20c-1.86 0-3.57-.64-4.93-1.72Zm11.29-1.45c-1.43-1.74-4.9-2.33-6.36-2.33s-4.93.59-6.36 2.33A7.95 7.95 0 0 1 4 12c0-4.41 3.59-8 8-8s8 3.59 8 8c0 1.82-.62 3.49-1.64 4.83ZM12 6c-1.94 0-3.5 1.56-3.5 3.5S10.06 13 12 13s3.5-1.56 3.5-3.5S13.94 6 12 6Zm0 5c-.83 0-1.5-.67-1.5-1.5S11.17 8 12 8s1.5.67 1.5 1.5S12.83 11 12 11Z" fill="#fff"/></mask></svg><svg fill="none" viewBox="0 0 24 24" id="instagram" xmlns="http://www.w3.org/2000/svg"><path d="M7.8 2h8.4A5.8 5.8 0 0 1 22 7.8v8.4a5.8 5.8 0 0 1-5.8 5.8H7.8A5.8 5.8 0 0 1 2 16.2V7.8A5.8 5.8 0 0 1 7.8 2Zm-.2 2A3.6 3.6 0 0 0 4 7.6v8.8A3.6 3.6 0 0 0 7.6 20h8.8a3.6 3.6 0 0 0 3.6-3.6V7.6A3.6 3.6 0 0 0 16.4 4H7.6Zm9.65 1.5a1.25 1.25 0 1 1 0 2.5 1.25 1.25 0 0 1 0-2.5ZM12 7a5 5 0 1 1 0 10 5 5 0 0 1 0-10Zm0 2a3 3 0 1 0 0 6 3 3 0 0 0 0-6Z" fill="#fff"/></svg><svg fill="none" viewBox="0 0 24 24" id="twitter" xmlns="http://www.w3.org/2000/svg"><path d="M22.46 6.012a8.58 8.58 0 0 1-2.466.676 4.305 4.305 0 0 0 1.887-2.374 8.591 8.591 0 0 1-2.725 1.041 4.292 4.292 0 0 0-7.313 3.914 12.184 12.184 0 0 1-8.846-4.483 4.271 4.271 0 0 0-.581 2.157 4.29 4.29 0 0 0 1.91 3.572 4.276 4.276 0 0 1-1.945-.537v.054c0 2.08 1.48 3.814 3.443 4.209a4.296 4.296 0 0 1-1.939.073 4.296 4.296 0 0 0 4.01 2.98 8.61 8.61 0 0 1-5.33 1.838c-.347 0-.688-.02-1.024-.06A12.147 12.147 0 0 0 8.12 21c7.893 0 12.21-6.54 12.21-12.21 0-.187-.004-.372-.012-.556a8.719 8.719 0 0 0 2.141-2.222Z" fill="#fff"/></svg></svg>